<svg version="1.0" xmlns="http://www.w3.org/2000/svg"
 width="31.88" height="32" viewBox="0 0 500.000000 500.000000"
 preserveAspectRatio="xMidYMid meet">

<g transform="translate(0.000000,500.000000) scale(0.100000,-0.100000)"
fill="#000000" stroke="none">
<path d="M1828 2607 c-143 -41 -228 -180 -200 -330 29 -153 158 -250 314 -233
75 7 116 25 167 71 l41 37 0 -51 0 -51 60 0 60 0 2 168 3 167 65 -97 65 -98
45 0 46 0 64 96 65 96 3 -166 2 -166 65 0 65 0 -6 28 c-4 15 -16 38 -26 52
-10 14 -21 42 -25 63 -5 36 -5 37 26 37 31 0 31 1 31 50 0 36 -7 59 -25 86
-34 50 -34 124 0 179 36 59 33 65 -29 65 l-55 0 -98 -144 c-54 -80 -102 -141
-106 -137 -5 5 -50 69 -101 142 l-92 134 -52 3 -52 3 0 -45 c0 -26 -2 -46 -5
-46 -3 0 -16 10 -28 21 -63 61 -198 91 -289 66z m168 -123 c19 -9 39 -25 45
-35 7 -15 21 -19 59 -19 49 0 50 -1 50 -29 0 -27 -4 -30 -42 -36 -24 -3 -82
-4 -130 -3 l-88 4 0 -48 0 -48 90 0 c50 0 90 -3 90 -7 0 -5 -9 -22 -20 -40
-60 -100 -230 -88 -286 19 -22 43 -21 139 3 179 47 81 138 106 229 63z"/>
</g>
</svg>
